<svg xmlns="http://www.w3.org/2000/svg" width="860" height="630" viewBox="0 0 860 630" role="img" aria-labelledby="title description">
<title id="title">Rose Pine chart palette</title>
<desc id="description">Six chart-colour families with five swatches each.</desc>
<style>
  text { fill: #e0def4; font-family: ui-monospace, SFMono-Regular, Menlo, monospace; font-size: 13px; }
  .title { font-family: ui-sans-serif, system-ui, sans-serif; font-size: 26px; font-weight: 700; }
  .family { font-family: ui-sans-serif, system-ui, sans-serif; font-size: 17px; font-weight: 650; }
</style>
<rect width="860" height="630" fill="#1f1d2e"/>
<text x="28" y="48" class="title">Rose Pine chart palette</text>
<text x="180" y="76">1</text><text x="312" y="76">2</text><text x="444" y="76">3</text><text x="576" y="76">4</text><text x="708" y="76">5</text>
<text x="28" y="118" class="family">Pine</text>
<g transform="translate(180 88)">
  <rect width="112" height="48" rx="8" fill="#00527a"/>
  <text x="56" y="70" text-anchor="middle">#00527a</text>
</g>
<g transform="translate(312 88)">
  <rect width="112" height="48" rx="8" fill="#1f6485"/>
  <text x="56" y="70" text-anchor="middle">#1f6485</text>
</g>
<g transform="translate(444 88)">
  <rect width="112" height="48" rx="8" fill="#35768f"/>
  <text x="56" y="70" text-anchor="middle">#35768f</text>
</g>
<g transform="translate(576 88)">
  <rect width="112" height="48" rx="8" fill="#4a8899"/>
  <text x="56" y="70" text-anchor="middle">#4a8899</text>
</g>
<g transform="translate(708 88)">
  <rect width="112" height="48" rx="8" fill="#5e9ba2"/>
  <text x="56" y="70" text-anchor="middle">#5e9ba2</text>
</g>
<text x="28" y="206" class="family">Foam</text>
<g transform="translate(180 176)">
  <rect width="112" height="48" rx="8" fill="#63b1bd"/>
  <text x="56" y="70" text-anchor="middle">#63b1bd</text>
</g>
<g transform="translate(312 176)">
  <rect width="112" height="48" rx="8" fill="#7fc1c5"/>
  <text x="56" y="70" text-anchor="middle">#7fc1c5</text>
</g>
<g transform="translate(444 176)">
  <rect width="112" height="48" rx="8" fill="#9ad1ce"/>
  <text x="56" y="70" text-anchor="middle">#9ad1ce</text>
</g>
<g transform="translate(576 176)">
  <rect width="112" height="48" rx="8" fill="#b5e1d7"/>
  <text x="56" y="70" text-anchor="middle">#b5e1d7</text>
</g>
<g transform="translate(708 176)">
  <rect width="112" height="48" rx="8" fill="#cff1df"/>
  <text x="56" y="70" text-anchor="middle">#cff1df</text>
</g>
<text x="28" y="294" class="family">Gold</text>
<g transform="translate(180 264)">
  <rect width="112" height="48" rx="8" fill="#f2a335"/>
  <text x="56" y="70" text-anchor="middle">#f2a335</text>
</g>
<g transform="translate(312 264)">
  <rect width="112" height="48" rx="8" fill="#f7b466"/>
  <text x="56" y="70" text-anchor="middle">#f7b466</text>
</g>
<g transform="translate(444 264)">
  <rect width="112" height="48" rx="8" fill="#fbc58c"/>
  <text x="56" y="70" text-anchor="middle">#fbc58c</text>
</g>
<g transform="translate(576 264)">
  <rect width="112" height="48" rx="8" fill="#ffd5af"/>
  <text x="56" y="70" text-anchor="middle">#ffd5af</text>
</g>
<g transform="translate(708 264)">
  <rect width="112" height="48" rx="8" fill="#ffe6d5"/>
  <text x="56" y="70" text-anchor="middle">#ffe6d5</text>
</g>
<text x="28" y="382" class="family">Rose</text>
<g transform="translate(180 352)">
  <rect width="112" height="48" rx="8" fill="#db9183"/>
  <text x="56" y="70" text-anchor="middle">#db9183</text>
</g>
<g transform="translate(312 352)">
  <rect width="112" height="48" rx="8" fill="#e4a79f"/>
  <text x="56" y="70" text-anchor="middle">#e4a79f</text>
</g>
<g transform="translate(444 352)">
  <rect width="112" height="48" rx="8" fill="#ecbebc"/>
  <text x="56" y="70" text-anchor="middle">#ecbebc</text>
</g>
<g transform="translate(576 352)">
  <rect width="112" height="48" rx="8" fill="#f3d4d8"/>
  <text x="56" y="70" text-anchor="middle">#f3d4d8</text>
</g>
<g transform="translate(708 352)">
  <rect width="112" height="48" rx="8" fill="#f9eaf5"/>
  <text x="56" y="70" text-anchor="middle">#f9eaf5</text>
</g>
<text x="28" y="470" class="family">Iris</text>
<g transform="translate(180 440)">
  <rect width="112" height="48" rx="8" fill="#b479cc"/>
  <text x="56" y="70" text-anchor="middle">#b479cc</text>
</g>
<g transform="translate(312 440)">
  <rect width="112" height="48" rx="8" fill="#bd91da"/>
  <text x="56" y="70" text-anchor="middle">#bd91da</text>
</g>
<g transform="translate(444 440)">
  <rect width="112" height="48" rx="8" fill="#c5a8e7"/>
  <text x="56" y="70" text-anchor="middle">#c5a8e7</text>
</g>
<g transform="translate(576 440)">
  <rect width="112" height="48" rx="8" fill="#ccc0f5"/>
  <text x="56" y="70" text-anchor="middle">#ccc0f5</text>
</g>
<g transform="translate(708 440)">
  <rect width="112" height="48" rx="8" fill="#d3d8ff"/>
  <text x="56" y="70" text-anchor="middle">#d3d8ff</text>
</g>
<text x="28" y="558" class="family">Mulberry</text>
<g transform="translate(180 528)">
  <rect width="112" height="48" rx="8" fill="#b33286"/>
  <text x="56" y="70" text-anchor="middle">#b33286</text>
</g>
<g transform="translate(312 528)">
  <rect width="112" height="48" rx="8" fill="#c44b97"/>
  <text x="56" y="70" text-anchor="middle">#c44b97</text>
</g>
<g transform="translate(444 528)">
  <rect width="112" height="48" rx="8" fill="#d461a7"/>
  <text x="56" y="70" text-anchor="middle">#d461a7</text>
</g>
<g transform="translate(576 528)">
  <rect width="112" height="48" rx="8" fill="#e477b8"/>
  <text x="56" y="70" text-anchor="middle">#e477b8</text>
</g>
<g transform="translate(708 528)">
  <rect width="112" height="48" rx="8" fill="#f48dc9"/>
  <text x="56" y="70" text-anchor="middle">#f48dc9</text>
</g>
</svg>
